<?xml version="1.0" encoding="utf-8"?>
<?xml-stylesheet type="text/xsl" href="rss1.xsl"?>
<rss version="2.0" xmlns:atom="http://www.w3.org/2005/Atom" xmlns:content="http://purl.org/rss/1.0/modules/content/" xmlns:dc="http://purl.org/dc/elements/1.1/" xmlns:media="http://search.yahoo.com/mrss/">
<channel>
 <title>Getty</title>
 <link>http://www.gettyimg.com/</link>
 <atom:link href="http://www.gettyimg.com/" rel="self" type="application/rss+xml" />

 
                <item>
                <title><![CDATA[【Music Videos】Lucio Dalla - Atento Al Lobo (VJ-RoGeRs Video Edit)]]></title>
                <link><![CDATA[https://sharemania.us/threads/lucio-dalla-atento-al-lobo-vj-rogers-video-edit.240747/]]></link>
                <description><![CDATA[<article>
<blockquote class="messageText SelectQuoteContainer ugc baseHtml">
<img src="https://i.ibb.co/GnG32yj/Lucio-Dalla-Atento-Al-Lobo-VJ-Ro-Ge-Rs-Video-Edit-mp4-thumbs-2024-03-25-21-44-55.jpg" class="bbCodeImage LbImage" alt="[​IMG]" data-url="https://i.ibb.co/GnG32yj/Lucio-Dalla-Atento-Al-Lobo-VJ-Ro-Ge-Rs-Video-Edit-mp4-thumbs-2024-03-25-21-44-55.jpg" style=""> <br>
<br>
<div class="ToggleTriggerAnchor bbCodeSpoilerContainer">
<button type="button" class="button bbCodeSpoilerButton ToggleTrigger Tooltip JsOnly" data-target="> .SpoilerTarget"><span>Spoiler: <span class="SpoilerTitle">MediaInfo</span></span></button>
<div class="SpoilerTarget bbCodeSpoilerText">Lucio Dalla - Atento Al Lobo (VJ-RoGeRs Video Edit).mp4<br>
Format : MPEG-4<br>
Format profile : Base Media / Version 2<br>
Codec ID : mp42 (mp42/mp41)<br>
File size : 328 MiB<br>
Duration : 4 min 28 s<br>
Overall bit rate mode : Variable<br>
Overall bit rate : 10.3 Mb/s<br>
Frame rate : 25.000 FPS<br>
Encoded date : 2021-02-23 02:18:37 UTC<br>
Tagged date : 2021-02-23 02:18:47 UTC<br>
TIM : 00:00:39:20<br>
TSC : 25<br>
TSZ : 1<br>
<br>
Video<br>
ID : 1<br>
Format : AVC<br>
Format/Info : Advanced Video Codec<br>
Format profile : High@L3.1<br>
Format settings : CABAC / 4 Ref Frames<br>
Format settings, CABAC : Yes<br>
Format settings, Reference : 4 frames<br>
Codec ID : avc1<br>
Codec ID/Info : Advanced Video Coding<br>
Duration : 4 min 28 s<br>
Bit rate mode : Variable<br>
Bit rate : 9 938 kb/s<br>
Maximum bit rate : 12.0 Mb/s<br>
Width : 720 pixels<br>
Height : 576 pixels<br>
Display aspect ratio : 4:3<br>
Original display aspect rat : 4:3<br>
Frame rate mode : Constant<br>
Frame rate : 25.000 FPS<br>
Standard : PAL<br>
Color space : YUV<br>
Chroma subsampling : 4:2:0<br>
Bit depth : 8 bits<br>
Scan type : Interlaced<br>
Scan type, store method : Separated fields<br>
Scan order : Bottom Field First<br>
Bits/(Pixel*Frame) : 0.959<br>
Stream size : 318 MiB (97%)<br>
Language : English<br>
Encoded date : 2021-02-23 02:18:37 UTC<br>
Tagged date : 2021-02-23 02:18:37 UTC<br>
Color range : Limited<br>
Color primaries : BT.601 PAL<br>
Transfer characteristics : BT.470 System B/G<br>
Matrix coefficients : BT.470 System B/G<br>
Codec configuration box : avcC<br>
<br>
Audio<br>
ID : 2<br>
Format : AAC LC<br>
Format/Info : Advanced Audio Codec Low Complexity<br>
Codec ID : mp4a-40-2<br>
Duration : 4 min 28 s<br>
Source duration : 4 min 28 s<br>
Bit rate mode : Variable<br>
Bit rate : 317 kb/s<br>
Maximum bit rate : 413 kb/s<br>
Channel(s) : 2 channels<br>
Channel layout : L R<br>
Sampling rate : 48.0 kHz<br>
Frame rate : 46.875 FPS (1024 SPF)<br>
Compression mode : Lossy<br>
Stream size : 10.2 MiB (3%)<br>
Source stream size : 10.2 MiB (3%)<br>
Language : English<br>
Encoded date : 2021-02-23 02:18:37 UTC<br>
Tagged date : 2021-02-23 02:18:37 UTC</div>
</div><br>
<div class="bbCodeBlock bbCodeVfcHH HiddenContent">
<div class="attribution type">Hidden Content:</div>
<blockquote>You must reply before you can see the hidden data contained here.</blockquote>
</div>
<div class="messageTextEndMarker">&nbsp;</div>
</blockquote>
</article>]]></description>
                <author><![CDATA[DJ-RoGeRs-BS]]></author>
                </item>

                
                <item>
                <title><![CDATA[【SD Live Performances】WEB-DL - Pavarotti &amp; Friends for Guatemala and Kosovo(RAI UNO) 06.01.1999]]></title>
                <link><![CDATA[https://sharemania.us/threads/pavarotti-friends-for-guatemala-and-kosovo-rai-uno-06-01-1999.240746/]]></link>
                <description><![CDATA[<article>
<blockquote class="messageText SelectQuoteContainer ugc baseHtml">
<img src="https://i.imgur.com/3ZtB2YC.jpg" class="bbCodeImage LbImage" alt="[​IMG]" data-url="https://i.imgur.com/3ZtB2YC.jpg" style=""><br>
<img src="https://i.imgur.com/e8GvzsJ.jpg" class="bbCodeImage LbImage" alt="[​IMG]" data-url="https://i.imgur.com/e8GvzsJ.jpg" style=""><br>
<div class="ToggleTriggerAnchor bbCodeSpoilerContainer">
<button type="button" class="button bbCodeSpoilerButton ToggleTrigger Tooltip JsOnly" data-target="> .SpoilerTarget"><span>Spoiler: <span class="SpoilerTitle">MediaInfo</span></span></button>
<div class="SpoilerTarget bbCodeSpoilerText">General<br>
Complete name : C:\Users\Admin\Downloads\Pavarotti &amp; Friends - Guatemala and Kosovo-RAIUNO-1999.mp4<br>
Format : MPEG-4<br>
Format profile : Base Media<br>
Codec ID : isom (isom/iso2/avc1/mp41)<br>
File size : 915 MiB<br>
Duration : 2 h 46 min<br>
Overall bit rate : 769 kb/s<br>
Movie name : Pavarotti Pro Kosovo 1999<br>
Writing application : Lavf58.51.100<br>
<br>
Video<br>
ID : 1<br>
Format : AVC<br>
Format/Info : Advanced Video Codec<br>
Format profile : Main@L3<br>
Format settings : CABAC / 4 Ref Frames<br>
Format settings, CABAC : Yes<br>
Format settings, Reference fra : 4 frames<br>
Codec ID : avc1<br>
Codec ID/Info : Advanced Video Coding<br>
Duration : 2 h 46 min<br>
Bit rate : 700 kb/s<br>
Width : 768 pixels<br>
Height : 448 pixels<br>
Display aspect ratio : 1.714<br>
Frame rate mode : Constant<br>
Frame rate : 25.000 FPS<br>
Color space : YUV<br>
Chroma subsampling : 4:2:0<br>
Bit depth : 8 bits<br>
Scan type : Progressive<br>
Bits/(Pixel*Frame) : 0.081<br>
Stream size : 831 MiB (91%)<br>
Writing library : x264 core 161 r3018 db0d417<br>
Encoding settings : cabac=1 / ref=2 / deblock=1:0:0 / analyse=0x1:0x111 / me=hex / subme=6 / psy=1 / psy_rd=1.00:0.00 / mixed_ref=1 / me_range=16 / chroma_me=1 / trellis=1 / 8x8dct=0 / cqm=0 / deadzone=21,11 / fast_pskip=1 / chroma_qp_offset=-2 / threads=14 / lookahead_threads=2 / sliced_threads=0 / nr=0 / decimate=1 / interlaced=0 / bluray_compat=0 / constrained_intra=0 / bframes=3 / b_pyramid=2 / b_adapt=1 / b_bias=0 / direct=1 / weightb=1 / open_gop=0 / weightp=1 / keyint=250 / keyint_min=25 / scenecut=40 / intra_refresh=0 / rc_lookahead=30 / rc=abr / mbtree=1 / bitrate=700 / ratetol=1.0 / qcomp=0.60 / qpmin=0 / qpmax=69 / qpstep=4 / vbv_maxrate=768 / vbv_bufsize=1400 / nal_hrd=none / filler=0 / ip_ratio=1.40 / aq=1:1.00<br>
Menus : 0<br>
Codec configuration box : avcC<br>
<br>
Audio<br>
ID : 2<br>
Format : AAC LC<br>
Format/Info : Advanced Audio Codec Low Complexity<br>
Codec ID : mp4a-40-2<br>
Duration : 2 h 46 min<br>
Bit rate mode : Constant<br>
Bit rate : 64.6 kb/s<br>
Channel(s) : 2 channels<br>
Channel layout : L R<br>
Sampling rate : 48.0 kHz<br>
Frame rate : 46.875 FPS (1024 SPF)<br>
Compression mode : Lossy<br>
Stream size : 76.8 MiB (8%)<br>
Default : Yes<br>
Alternate group : 1<br>
Menus : 0</div>
</div>
<div class="bbCodeBlock bbCodeVfcHH HiddenContent">
<div class="attribution type">Hidden Content:</div>
<blockquote>You must reply before you can see the hidden data contained here.</blockquote>
</div>
<div class="messageTextEndMarker">&nbsp;</div>
</blockquote>
</article>]]></description>
                <author><![CDATA[BERNXMRG]]></author>
                </item>

                </channel></rss>